<svg width="33" height="33" fill="none" xmlns="http://www.w3.org/2000/svg"><path fill-rule="evenodd" clip-rule="evenodd" d="M33 16.5c0-2.777-1.865-4.95-4.95-4.95h-5.07l.045-.126.3-.794.001-.001.002-.004c.11-.291.218-.574.262-.694.314-.842.543-1.52.728-2.193.28-1.015.432-1.93.432-2.788 0-2.429-1.498-3.937-3.715-4.583-1-.291-1.87-.367-2.885-.367h-.791l-.496.617c-.56.697-1.658 1.953-2.925 3.4C11.6 6.69 8.69 10.014 7.54 11.688a3.3 3.3 0 00-.941-.136H3.3a3.3 3.3 0 00-3.3 3.3V29.7A3.3 3.3 0 003.3 33h3.3a3.297 3.297 0 002.728-1.443c.5.323 1.06.593 1.666.81 1.39.498 2.768.65 3.913.63H26.4c4.546 0 6.6-6.692 6.6-16.499zM12.106 29.261c-1.457-.522-2.203-1.37-2.206-2.853V14.844c0-.394.074-.744.234-1.117.288-.673 2.904-3.657 5.384-6.486 1.28-1.46 2.523-2.878 3.39-3.916.416.03.807.095 1.204.21.946.276 1.338.67 1.338 1.415 0 .522-.106 1.159-.313 1.911a22.882 22.882 0 01-.64 1.918l-.245.65-.001.002c-.13.343-.27.71-.32.849-.215.58-.357 1.007-.453 1.395-.411 1.65.001 3.174 1.972 3.174h6.6c1.14 0 1.65.594 1.65 1.65 0 7.905-1.625 13.2-3.3 13.2H14.789a7.94 7.94 0 01-2.683-.437zM3.3 29.7V14.85h3.3V29.7H3.3z" fill="#000"/></svg>