<svg width="34" height="41" fill="none" xmlns="http://www.w3.org/2000/svg"><path fill-rule="evenodd" clip-rule="evenodd" d="M8.083 13.167v6.417l-7.333 5.5v10.083h7.333a3.667 3.667 0 003.667 3.666h3.667v1.834h3.666v-1.834h3.667a3.667 3.667 0 003.667-3.666h7.333V25.083l-7.333-5.5v-6.416C26.417 7.38 22.908.333 17.25.333c-5.659 0-9.167 7.048-9.167 12.834zm11 22h3.667v-22c0-4.02-2.562-9.167-5.5-9.167s-5.5 5.147-5.5 9.167v22h3.667v-11h3.666v11zm-14.666-8.25l3.666-2.75V31.5H4.417v-4.583zm22 4.583v-7.333l3.666 2.75V31.5h-3.666zM17.25 18.667a3.667 3.667 0 110-7.334 3.667 3.667 0 010 7.334z" fill="#111"/></svg>