<svg width="95" height="95" fill="none" xmlns="http://www.w3.org/2000/svg"><g clip-path="url(#clip0_108_1049)"><path d="M89.622-.03H5.378C2.408-.03 0 2.427 0 5.455v84.033c0 3.029 2.408 5.484 5.378 5.484h84.244c2.97 0 5.378-2.455 5.378-5.484V5.454c0-3.028-2.408-5.483-5.378-5.483z" fill="#FECE2F"/><path d="M41.832 7.806h11.526l7.583 21.099c.935 2.803 1.75 5.846 2.69 8.767h.286c.939-2.921 1.73-5.964 2.668-8.767l7.353-21.099h11.525v47.497h-9.628V37.865c0-4.643.854-11.539 1.352-16.131H76.9l-3.834 11.235-6.607 18.188h-5.864l-6.621-18.188-3.729-11.235h-.287c.497 4.592 1.352 11.502 1.352 16.13v17.424h-9.478V7.806z" fill="#1D1D1B"/><path d="M16.395 7.806H33.23c9.912 0 18.034 3.5 18.034 14.788 0 10.91-8.122 15.606-18.034 15.606h-6.27v17.088H16.395V7.806zm15.973 21.87c5.556 0 8.542-2.418 8.542-7.085 0-4.668-2.986-6.264-8.542-6.264h-5.41v13.349h5.41zm-1.072 5.714l7.307-6.868 14.915 26.784H41.695L31.296 35.39z" fill="#FECE2F"/><path d="M8.504 7.806h16.83c9.915 0 18.038 3.496 18.038 14.785 0 10.913-8.123 15.61-18.038 15.61H19.07v17.087H8.504V7.806zm15.972 21.87c5.556 0 8.543-2.418 8.543-7.089s-2.987-6.26-8.543-6.26H19.07v13.349h5.406zm-1.071 5.714l7.307-6.868 14.915 26.784H33.803L23.405 35.39zM8.753 64.813h4.691c2.766 0 5.032 1.218 5.032 5.15 0 3.796-2.266 5.431-5.031 5.431h-1.751v5.95H8.753V64.813zm4.453 7.614c1.548 0 2.381-.84 2.381-2.465 0-1.624-.833-2.181-2.38-2.181H11.71v4.642l1.495.004zm-.3 1.982l2.037-2.39 4.173 9.325h-3.294l-2.917-6.935zm7.75-9.596h2.948v16.53h-2.948v-16.53zm5.668 0h3.018l3.4 8.214 1.288 3.632h.08c-.136-1.747-.374-4.065-.374-6.014v-5.832h2.801v16.53h-3.014l-3.414-8.241-1.288-3.61h-.08c.14 1.82.377 4.034.377 5.984v5.868h-2.8l.006-16.531zm15.364 0h3.526l4.093 16.53h-3.12l-1.705-8.37c-.35-1.653-.7-3.607-1.05-5.332h-.08c-.316 1.743-.662 3.679-1.026 5.332l-1.712 8.37h-3.011l4.085-16.53zm-1.4 9.688h6.278v2.904h-6.271l-.007-2.904zm9.915-9.688h3.214l2.1 7.346c.26.975.49 2.032.75 3.05h.101c.263-1.018.484-2.075.743-3.05l2.058-7.346h3.218v16.53h-2.685v-6.07c0-1.61.238-4.018.378-5.614H60l-1.051 3.91-1.88 6.336h-1.635l-1.845-6.332-1.05-3.91h-.081c.14 1.596.378 4.003.378 5.613v6.071h-2.644l.01-16.534zm17.302 0h3.525l4.093 16.53h-3.12l-1.704-8.37c-.35-1.653-.7-3.607-1.05-5.332h-.081c-.315 1.743-.662 3.679-1.026 5.332l-1.712 8.37h-3.011l4.086-16.53zm-1.4 9.688h6.27v2.904H66.11l-.007-2.904z" fill="#1D1D1B"/><path d="M78.352 72.837l-3.39-8.024h3.285l1.134 3.128c.294.76.574 1.61.945 2.65h.08c.302-1.04.575-1.89.838-2.65l1.032-3.128h3.151l-3.389 8.214 3.603 8.331h-3.28l-1.289-3.371a80.927 80.927 0 01-.973-2.721h-.08a75.458 75.458 0 01-.897 2.72L77.9 81.359h-3.15l3.603-8.52z" fill="#1D1D1B"/><path d="M8.504 85.911h76.955M8.504 59.731h76.71" stroke="#1D1D1B" stroke-width="3" stroke-miterlimit="10"/></g><defs><clipPath id="clip0_108_1049"><rect width="95" height="95" rx="4" fill="#fff"/></clipPath></defs></svg>